<?xml version="1.0" encoding="utf-8"?><svg width="96" height="66" viewBox="0 0 96 66" xmlns="http://www.w3.org/2000/svg" xmlns:xlink="http://www.w3.org/1999/xlink"><svg width="48" height="48" viewBox="0 0 48 48" id="ex1_48x48"><path d="M6 42h36v-4H6v4zm0-8h36v-4H6v4zm0-8h36v-4H6v4zm0-8h36v-4H6v4zM6 6v4h36V6H6z"/></svg><svg width="48" height="48" viewBox="0 0 48 48" id="ex1_te_48x48" x="48"><path d="M6 42h36v-4H6v4zm0-8h36v-4H6v4zm0-8h36v-4H6v4zm0-8h36v-4H6v4zM6 6v4h36V6H6z"/></svg><svg width="18" height="18" viewBox="0 0 18 18" id="ex_18x18" y="48"><path d="M2 16h14v-2H2v2zm0-4h14v-2H2v2zM2 2v2h14V2H2zm0 6h14V6H2v2z"/></svg><svg width="18" height="18" viewBox="0 0 18 18" id="ex_te_18x18" x="18" y="48"><path d="M2 16h14v-2H2v2zm0-4h14v-2H2v2zM2 2v2h14V2H2zm0 6h14V6H2v2z"/></svg></svg>